<?xml version="1.0" encoding="utf-8"?>
<!-- Generator: Adobe Illustrator 27.5.0, SVG Export Plug-In . SVG Version: 6.00 Build 0)  -->
<svg version="1.1" id="Layer_1" xmlns="http://www.w3.org/2000/svg" xmlns:xlink="http://www.w3.org/1999/xlink" x="0px" y="0px"
	 viewBox="-24.062 -92.32 83.736 73.248" style="enable-background:new -24.062 -92.32 83.736 73.248;" xml:space="preserve">
<rect x="-24.062" y="-92.321" style="fill:#FFFFFF;" width="83.736" height="73.25"/>
<g>
	
		<radialGradient id="SVGID_1_" cx="486.4802" cy="218.0118" r="9.1132" fx="487.155" fy="218.2453" gradientTransform="matrix(1.1431 0.01 -0.0123 0.391 -529.9565 -130.2636)" gradientUnits="userSpaceOnUse">
		<stop  offset="0.0044" style="stop-color:#272727"/>
		<stop  offset="0.0143" style="stop-color:#2D2D2D"/>
		<stop  offset="0.1095" style="stop-color:#5D5D5D"/>
		<stop  offset="0.2097" style="stop-color:#898989"/>
		<stop  offset="0.3134" style="stop-color:#ADADAD"/>
		<stop  offset="0.4214" style="stop-color:#CBCBCB"/>
		<stop  offset="0.5351" style="stop-color:#E2E2E2"/>
		<stop  offset="0.6571" style="stop-color:#F2F2F2"/>
		<stop  offset="0.7934" style="stop-color:#FCFCFC"/>
		<stop  offset="0.9726" style="stop-color:#FFFFFF"/>
	</radialGradient>
	<path style="opacity:0.69;fill:url(#SVGID_1_);" d="M34.416-40.142c-0.061,1.975-5.123,3.554-11.283,3.506
		c-6.184-0.041-11.126-1.698-11.064-3.668c0.058-2.006,5.107-3.588,11.288-3.537C29.523-43.796,34.478-42.137,34.416-40.142z"/>
	<g>
		
			<linearGradient id="SVGID_00000172421111141480396070000017109673724472430006_" gradientUnits="userSpaceOnUse" x1="21.8947" y1="-55.2873" x2="31.3543" y2="-48.2098">
			<stop  offset="0" style="stop-color:#FFA261"/>
			<stop  offset="1" style="stop-color:#F17B00"/>
		</linearGradient>
		<path style="fill-rule:evenodd;clip-rule:evenodd;fill:url(#SVGID_00000172421111141480396070000017109673724472430006_);" d="
			M35.657-53.714c0.939-2.209,0.117-4.158-1.479-5.639c-1.644-1.503-4.085-2.49-6.244-2.678c6.69,3.9,4.694,6.953,1.573,10.289
			c-3.146,3.336-7.466,7-5.306,11.486c-0.212-2.772,2.276-5.168,4.977-7.352C31.876-49.792,34.788-51.742,35.657-53.714
			L35.657-53.714z"/>
		
			<linearGradient id="SVGID_00000163751663192073016600000012266710362612503217_" gradientUnits="userSpaceOnUse" x1="30.7503" y1="-67.1247" x2="40.2108" y2="-60.0464">
			<stop  offset="0" style="stop-color:#FFA261"/>
			<stop  offset="1" style="stop-color:#F17B00"/>
		</linearGradient>
		<path style="fill-rule:evenodd;clip-rule:evenodd;fill:url(#SVGID_00000163751663192073016600000012266710362612503217_);" d="
			M30.209-58.812c-0.962,2.207-0.14,4.156,1.457,5.637c1.643,1.504,4.107,2.49,6.243,2.678c-6.69-3.922-4.695-6.952-1.549-10.289
			c3.123-3.335,7.442-6.999,5.306-11.486c0.187,2.748-2.277,5.168-5.001,7.353C33.966-62.735,31.055-60.809,30.209-58.812
			L30.209-58.812z"/>
		<path style="fill-rule:evenodd;clip-rule:evenodd;fill:#FEFEFE;" d="M31.149-58.742c-0.962,2.207-0.118,4.181,1.479,5.637
			c0.399,0.376,0.822,0.705,1.292,0.987l-0.07-0.07c-1.596-1.809-2.441-4.229-1.479-6.953c0.399-1.104,1.221-2.185,2.23-3.313
			C33.027-61.185,31.689-59.964,31.149-58.742L31.149-58.742z"/>
		<path style="fill-rule:evenodd;clip-rule:evenodd;fill:#FEFEFE;" d="M35.07-53.926c0.469-0.916,0.305-1.785-0.164-2.49
			c-0.071-0.118-0.164-0.234-0.259-0.329c0.399,0.87,0.493,1.974,0,3.101c-0.094,0.189-0.211,0.375-0.328,0.587
			C34.647-53.339,34.906-53.644,35.07-53.926L35.07-53.926z"/>
		
			<linearGradient id="SVGID_00000010311158444079282670000008118675973552458114_" gradientUnits="userSpaceOnUse" x1="29.8013" y1="-64.1756" x2="34.6095" y2="-64.1756">
			<stop  offset="0" style="stop-color:#FFA261"/>
			<stop  offset="1" style="stop-color:#F17B00"/>
		</linearGradient>
		<path style="fill-rule:evenodd;clip-rule:evenodd;fill:url(#SVGID_00000010311158444079282670000008118675973552458114_);" d="
			M30.75-65.202c1.032-1.081,2.559-1.48,3.356-0.893c0.821,0.563,0.61,1.879-0.446,2.959c-1.033,1.057-2.559,1.457-3.357,0.893
			C29.482-62.829,29.694-64.145,30.75-65.202L30.75-65.202z"/>
	</g>
</g>
<g>
	<g>
		<g>
			<g>
				<path style="fill:#615E5C;" d="M5.095-53.697c0.129-0.073,0.277-0.106,0.443-0.106c0.348,0,0.525,0.174,0.525,0.522v0.746H5.948
					v-0.208l-0.009,0.008c-0.006,0.002-0.01,0.011-0.019,0.023c-0.009,0.006-0.019,0.02-0.026,0.03
					c-0.017,0.011-0.023,0.029-0.045,0.038c-0.014,0.014-0.035,0.027-0.05,0.042c-0.02,0.013-0.042,0.028-0.066,0.038
					c-0.025,0.014-0.052,0.028-0.076,0.034c-0.028,0.007-0.057,0.013-0.089,0.025c-0.033,0.005-0.065,0.005-0.102,0.005
					c-0.153,0-0.273-0.043-0.357-0.117c-0.088-0.083-0.132-0.184-0.132-0.302c0-0.117,0.051-0.211,0.148-0.282
					c0.099-0.074,0.225-0.112,0.382-0.112h0.431c0-0.187-0.068-0.308-0.222-0.361c-0.044-0.012-0.096-0.018-0.153-0.018
					c-0.056,0-0.106,0-0.154,0.006c-0.048,0.007-0.087,0.012-0.12,0.023c-0.031,0.01-0.053,0.019-0.076,0.029
					c-0.019,0.007-0.035,0.018-0.05,0.026c-0.02,0.013-0.026,0.017-0.029,0.017L5.095-53.697z M5.948-53.058
					c0-0.075,0-0.121,0-0.137c-0.028,0-0.062,0-0.094,0c-0.039,0-0.075,0-0.106,0c-0.033,0-0.074,0-0.122,0
					c-0.107,0-0.201,0.003-0.279,0.016c-0.076,0.015-0.138,0.046-0.178,0.093c-0.017,0.021-0.032,0.042-0.04,0.066
					c-0.012,0.031-0.02,0.065-0.022,0.098c-0.005,0.035,0.002,0.071,0.014,0.107c0.011,0.034,0.031,0.066,0.058,0.099
					c0.024,0.024,0.06,0.047,0.111,0.069c0.051,0.018,0.113,0.031,0.183,0.031c0.048,0,0.092-0.005,0.134-0.019
					c0.039-0.007,0.073-0.018,0.103-0.027c0.03-0.014,0.055-0.03,0.082-0.044c0.024-0.019,0.044-0.037,0.056-0.055
					c0.02-0.018,0.031-0.034,0.047-0.055c0.008-0.02,0.017-0.036,0.022-0.056c0.004-0.017,0.015-0.03,0.017-0.047
					c0.006-0.014,0.006-0.024,0.015-0.038C5.948-52.956,5.948-52.989,5.948-53.058z"/>
				<path style="fill:#615E5C;" d="M7.314-53.786h0.434v0.107H7.314v0.595v0.009v0.01c0,0.011,0,0.036,0,0.063
					c-0.002,0.034-0.002,0.054-0.002,0.069c0,0.016,0.002,0.035,0.002,0.062c0,0.026,0.004,0.048,0.008,0.062
					c0.007,0.019,0.014,0.031,0.02,0.054c0.013,0.021,0.021,0.039,0.036,0.05c0.081,0.092,0.205,0.104,0.372,0.044l0.009,0.112
					l-0.024,0.004c-0.005,0.004-0.016,0.004-0.023,0.011c-0.008,0-0.019,0-0.035,0.006c-0.013,0.003-0.028,0.007-0.04,0.007
					c-0.015,0.006-0.034,0.006-0.052,0.006c-0.02,0-0.041,0-0.054,0c-0.017,0-0.035-0.006-0.055-0.012
					c-0.021-0.007-0.038-0.007-0.057-0.017c-0.019-0.011-0.035-0.018-0.06-0.031c-0.02-0.012-0.035-0.027-0.057-0.044
					c-0.034-0.031-0.06-0.085-0.082-0.144c-0.015-0.076-0.024-0.119-0.028-0.153c0-0.032,0-0.085,0-0.148v-0.018v-0.595H7.011
					v-0.107H7.19v-0.403h0.123V-53.786z"/>
				<path style="fill:#615E5C;" d="M7.977-53.697c0.135-0.073,0.279-0.106,0.446-0.106c0.348,0,0.524,0.174,0.524,0.522v0.746H8.824
					v-0.208l-0.006,0.008c-0.005,0.002-0.007,0.011-0.018,0.023c-0.01,0.006-0.015,0.02-0.03,0.03
					c-0.007,0.011-0.024,0.029-0.037,0.038c-0.017,0.014-0.036,0.027-0.053,0.042c-0.022,0.013-0.039,0.028-0.065,0.038
					c-0.026,0.014-0.054,0.028-0.078,0.034c-0.025,0.007-0.055,0.013-0.087,0.025c-0.031,0.005-0.07,0.005-0.102,0.005
					c-0.152,0-0.273-0.043-0.357-0.117c-0.087-0.083-0.131-0.184-0.131-0.302c0-0.117,0.045-0.211,0.147-0.282
					c0.098-0.074,0.223-0.112,0.381-0.112H8.82c0-0.187-0.074-0.308-0.222-0.361c-0.042-0.012-0.094-0.018-0.151-0.018
					c-0.058,0-0.113,0-0.157,0.006c-0.044,0.007-0.087,0.012-0.118,0.023c-0.03,0.01-0.056,0.019-0.076,0.029
					c-0.02,0.007-0.035,0.018-0.054,0.026c-0.015,0.013-0.018,0.017-0.024,0.017L7.977-53.697z M8.83-53.058
					c0-0.075,0-0.121,0-0.137c-0.029,0-0.061,0-0.096,0c-0.036,0-0.068,0-0.102,0c-0.033,0-0.075,0-0.124,0
					c-0.109,0-0.199,0.003-0.277,0.016c-0.076,0.015-0.139,0.046-0.182,0.093c-0.012,0.021-0.025,0.042-0.041,0.066
					c-0.009,0.031-0.014,0.065-0.017,0.098c-0.003,0.035,0.001,0.071,0.011,0.107c0.013,0.034,0.035,0.066,0.055,0.099
					c0.03,0.024,0.067,0.047,0.115,0.069c0.053,0.018,0.109,0.031,0.186,0.031c0.046,0,0.089-0.005,0.128-0.019
					c0.041-0.007,0.074-0.018,0.104-0.027c0.033-0.014,0.059-0.03,0.081-0.044c0.026-0.019,0.046-0.037,0.063-0.055
					c0.013-0.018,0.028-0.034,0.037-0.055c0.015-0.02,0.02-0.036,0.03-0.056c0.007-0.017,0.011-0.03,0.012-0.047
					c0.005-0.014,0.008-0.024,0.011-0.038C8.828-52.956,8.83-52.989,8.83-53.058z"/>
				<path style="fill:#615E5C;" d="M10.511-52.734h-0.002c-0.002,0.035-0.003,0.082-0.015,0.146
					c-0.005,0.054-0.026,0.106-0.059,0.154c-0.032,0.054-0.074,0.105-0.124,0.147c-0.054,0.045-0.113,0.08-0.187,0.109
					c-0.074,0.033-0.149,0.044-0.231,0.044c-0.161,0-0.318-0.044-0.473-0.125v-0.152c0.098,0.108,0.25,0.167,0.466,0.167
					c0.066,0,0.128-0.015,0.18-0.031c0.053-0.018,0.094-0.037,0.125-0.059c0.035-0.021,0.064-0.051,0.09-0.091
					c0.03-0.038,0.045-0.065,0.055-0.092c0.017-0.029,0.024-0.061,0.034-0.1c0.009-0.036,0.011-0.061,0.011-0.076
					c0.003-0.009,0.003-0.022,0.005-0.043v-0.188c-0.023,0.035-0.05,0.065-0.076,0.095c-0.03,0.033-0.066,0.063-0.106,0.094
					c-0.042,0.031-0.088,0.058-0.148,0.072C10-52.643,9.944-52.635,9.883-52.635c-0.07,0-0.133-0.012-0.207-0.035
					c-0.068-0.028-0.133-0.064-0.199-0.11c-0.06-0.047-0.11-0.106-0.137-0.188c-0.041-0.076-0.052-0.165-0.052-0.267
					c0-0.098,0.019-0.179,0.058-0.264c0.041-0.09,0.106-0.161,0.201-0.224c0.089-0.063,0.191-0.097,0.3-0.097
					c0.065,0,0.125,0.011,0.183,0.022c0.052,0.018,0.094,0.031,0.129,0.051c0.037,0.018,0.067,0.044,0.106,0.072
					c0.032,0.03,0.054,0.059,0.066,0.073c0.013,0.016,0.028,0.036,0.045,0.062c0.005,0.005,0.009,0.014,0.011,0.016v-0.263h0.124
					V-52.734z M9.883-52.743c0.13,0,0.244-0.048,0.354-0.135c0.105-0.098,0.155-0.204,0.155-0.339c0-0.13-0.05-0.249-0.155-0.348
					c-0.109-0.096-0.224-0.142-0.354-0.142c-0.134,0-0.249,0.046-0.344,0.138c-0.096,0.092-0.145,0.21-0.145,0.342
					c0,0.131,0.048,0.25,0.145,0.343C9.634-52.791,9.749-52.743,9.883-52.743z"/>
				<path style="fill:#615E5C;" d="M10.997-53.095v0.012v0.009c0,0.009-0.002,0.03-0.003,0.072c-0.004,0.047-0.004,0.08,0,0.09
					c0,0.012,0.005,0.035,0.007,0.067c0.005,0.03,0.011,0.055,0.016,0.074c0.015,0.017,0.026,0.037,0.045,0.057
					c0.075,0.094,0.203,0.108,0.369,0.044l0.008,0.107c-0.024,0.007-0.04,0.014-0.048,0.018c-0.005,0.002-0.02,0.004-0.035,0.011
					c-0.011,0-0.031,0-0.04,0c-0.013,0.006-0.032,0.007-0.049,0.007c-0.022,0.002-0.035,0-0.053-0.001
					c-0.02-0.006-0.039-0.006-0.058-0.006c-0.021-0.007-0.039-0.011-0.057-0.021c-0.018-0.007-0.037-0.017-0.057-0.032
					c-0.019-0.013-0.039-0.027-0.057-0.046c-0.024-0.018-0.044-0.042-0.058-0.072c-0.016-0.036-0.025-0.064-0.035-0.1
					c-0.006-0.034-0.01-0.061-0.013-0.095c-0.006-0.038-0.009-0.069-0.006-0.091c0-0.034,0-0.053-0.003-0.083v-0.021v-1.235h0.127
					V-53.095z"/>
				<path style="fill:#615E5C;" d="M11.709-54.17h0.165v0.207h-0.165V-54.17z M11.853-53.552v-0.233h-0.12v1.251h0.12V-53.552z"/>
				<path style="fill:#615E5C;" d="M12.34-52.535h-0.119v-1.251h0.119v0.214c0.1-0.164,0.244-0.247,0.419-0.247
					c0.175,0,0.306,0.049,0.395,0.146c0.09,0.095,0.136,0.229,0.136,0.399v0.739h-0.12v-0.688c0-0.315-0.141-0.476-0.425-0.479
					c-0.192,0-0.322,0.109-0.405,0.323V-52.535z"/>
				<path style="fill:#615E5C;" d="M13.77-53.111c0.005,0.053,0.018,0.108,0.035,0.161c0.028,0.066,0.064,0.122,0.113,0.172
					c0.042,0.054,0.095,0.09,0.163,0.116c0.063,0.026,0.129,0.046,0.202,0.046c0.075,0,0.144-0.02,0.205-0.046
					c0.041-0.015,0.08-0.041,0.113-0.067v0.137c-0.024,0.016-0.042,0.023-0.066,0.029c-0.08,0.037-0.166,0.059-0.258,0.059
					c-0.094,0-0.178-0.022-0.256-0.056c-0.075-0.033-0.147-0.082-0.2-0.14c-0.06-0.062-0.104-0.129-0.134-0.207
					c-0.032-0.08-0.05-0.16-0.05-0.254v-0.002c0-0.088,0.019-0.171,0.05-0.249c0.031-0.075,0.075-0.146,0.134-0.209
					c0.058-0.059,0.128-0.107,0.205-0.146c0.08-0.036,0.166-0.054,0.258-0.054c0.039,0,0.078,0.011,0.126,0.021
					c0.04,0.013,0.084,0.038,0.13,0.071c0.053,0.036,0.1,0.079,0.135,0.127c0.039,0.049,0.07,0.117,0.097,0.203
					c0.026,0.084,0.037,0.181,0.034,0.286H13.77z M14.276-53.703c-0.072,0-0.141,0.018-0.204,0.043
					c-0.067,0.027-0.118,0.067-0.161,0.112c-0.046,0.054-0.08,0.107-0.107,0.171c-0.017,0.054-0.029,0.102-0.035,0.16h0.911
					c0-0.033-0.016-0.09-0.038-0.168c-0.016-0.051-0.039-0.1-0.063-0.139c-0.026-0.041-0.053-0.069-0.071-0.092
					c-0.024-0.018-0.055-0.037-0.083-0.047c-0.036-0.017-0.06-0.023-0.072-0.029c-0.017,0-0.039-0.009-0.065-0.011
					C14.284-53.702,14.278-53.703,14.276-53.703z"/>
				<path style="fill:#615E5C;" d="M17.026-52.734h-0.003c0,0.035-0.009,0.082-0.015,0.146c-0.007,0.054-0.024,0.106-0.058,0.154
					c-0.033,0.054-0.072,0.105-0.125,0.147c-0.055,0.045-0.111,0.08-0.19,0.109c-0.071,0.033-0.146,0.044-0.226,0.044
					c-0.163,0-0.319-0.044-0.478-0.125v-0.152c0.097,0.108,0.251,0.167,0.468,0.167c0.066,0,0.124-0.015,0.175-0.031
					c0.058-0.018,0.097-0.037,0.131-0.059c0.031-0.021,0.062-0.051,0.089-0.091c0.027-0.038,0.042-0.065,0.055-0.092
					c0.012-0.029,0.027-0.061,0.034-0.1c0.006-0.036,0.013-0.061,0.014-0.076c0-0.009,0-0.022,0-0.043v-0.188
					c-0.017,0.035-0.047,0.065-0.075,0.095c-0.027,0.033-0.064,0.063-0.104,0.094c-0.047,0.031-0.095,0.058-0.152,0.072
					c-0.055,0.019-0.108,0.026-0.172,0.026c-0.066,0-0.133-0.012-0.204-0.035c-0.067-0.028-0.139-0.064-0.199-0.11
					c-0.063-0.047-0.108-0.106-0.146-0.188c-0.029-0.076-0.05-0.165-0.05-0.267c0-0.098,0.024-0.179,0.065-0.264
					c0.037-0.09,0.107-0.161,0.2-0.224c0.09-0.063,0.19-0.097,0.302-0.097c0.063,0,0.121,0.011,0.177,0.022
					c0.057,0.018,0.101,0.031,0.133,0.051c0.042,0.018,0.071,0.044,0.1,0.072c0.036,0.03,0.057,0.059,0.07,0.073
					c0.014,0.016,0.028,0.036,0.048,0.062c0.006,0.005,0.007,0.014,0.007,0.016v-0.263h0.127V-52.734z M16.391-52.743
					c0.134,0,0.249-0.048,0.362-0.135c0.104-0.098,0.149-0.204,0.149-0.339c0-0.13-0.045-0.249-0.149-0.348
					c-0.113-0.096-0.228-0.142-0.362-0.142c-0.13,0-0.247,0.046-0.341,0.138c-0.092,0.092-0.136,0.21-0.136,0.342
					c0,0.131,0.044,0.25,0.136,0.343C16.144-52.791,16.26-52.743,16.391-52.743z"/>
				<path style="fill:#615E5C;" d="M18.009-52.503c-0.095,0-0.18-0.022-0.259-0.056c-0.072-0.033-0.146-0.082-0.201-0.14
					c-0.059-0.062-0.103-0.129-0.135-0.207c-0.031-0.08-0.047-0.16-0.047-0.254v-0.002c0-0.088,0.016-0.171,0.047-0.249
					c0.032-0.075,0.076-0.146,0.135-0.209c0.055-0.059,0.128-0.107,0.203-0.146c0.082-0.036,0.169-0.054,0.265-0.054
					c0.089,0,0.172,0.018,0.253,0.054c0.08,0.038,0.145,0.084,0.198,0.143c0.061,0.059,0.107,0.129,0.14,0.209
					c0.027,0.071,0.04,0.161,0.04,0.245v0.007c0,0.087-0.013,0.173-0.04,0.249c-0.033,0.08-0.078,0.148-0.14,0.212
					c-0.053,0.058-0.125,0.108-0.198,0.142C18.186-52.526,18.096-52.503,18.009-52.503z M18.017-52.616
					c0.067,0,0.134-0.02,0.207-0.046c0.055-0.03,0.111-0.067,0.155-0.116c0.044-0.05,0.084-0.105,0.106-0.172
					c0.025-0.065,0.04-0.132,0.04-0.21v-0.002c0-0.073-0.015-0.145-0.04-0.215c-0.028-0.064-0.067-0.122-0.109-0.175
					c-0.046-0.042-0.099-0.081-0.168-0.11c-0.06-0.023-0.129-0.041-0.199-0.041c-0.073,0-0.144,0.018-0.208,0.043
					c-0.064,0.027-0.119,0.067-0.163,0.112c-0.039,0.054-0.077,0.107-0.109,0.171c-0.02,0.064-0.033,0.135-0.033,0.208v0.007
					c0,0.078,0.013,0.146,0.04,0.212c0.027,0.066,0.063,0.122,0.109,0.172c0.041,0.054,0.104,0.09,0.163,0.116
					C17.874-52.635,17.94-52.616,18.017-52.616z"/>
				<path style="fill:#615E5C;" d="M19.119-53.111c0.009,0.053,0.021,0.108,0.044,0.161c0.02,0.066,0.062,0.122,0.111,0.172
					c0.037,0.054,0.1,0.09,0.164,0.116c0.061,0.026,0.129,0.046,0.191,0.046c0.08,0,0.147-0.02,0.208-0.046
					c0.046-0.015,0.083-0.041,0.119-0.067v0.137c-0.026,0.016-0.049,0.023-0.063,0.029c-0.08,0.037-0.17,0.059-0.265,0.059
					c-0.092,0-0.176-0.022-0.255-0.056c-0.075-0.033-0.145-0.082-0.2-0.14c-0.058-0.062-0.104-0.129-0.137-0.207
					c-0.03-0.08-0.049-0.16-0.049-0.254v-0.002c0-0.088,0.019-0.171,0.049-0.249c0.033-0.075,0.079-0.146,0.137-0.209
					c0.056-0.059,0.131-0.107,0.207-0.146c0.074-0.036,0.157-0.054,0.248-0.054c0.049,0,0.09,0.011,0.13,0.021
					c0.039,0.013,0.086,0.038,0.138,0.071c0.046,0.036,0.092,0.079,0.132,0.127c0.041,0.049,0.073,0.117,0.098,0.203
					c0.026,0.084,0.038,0.181,0.038,0.286H19.119z M19.629-53.703c-0.07,0-0.141,0.018-0.205,0.043
					c-0.061,0.027-0.113,0.067-0.162,0.112c-0.038,0.054-0.08,0.107-0.1,0.171c-0.022,0.054-0.035,0.102-0.044,0.16h0.919
					c0-0.033-0.017-0.09-0.033-0.168c-0.02-0.051-0.043-0.1-0.065-0.139c-0.031-0.041-0.056-0.069-0.076-0.092
					c-0.025-0.018-0.049-0.037-0.086-0.047c-0.03-0.017-0.053-0.023-0.072-0.029c-0.016,0-0.034-0.009-0.059-0.011
					C19.636-53.702,19.629-53.703,19.629-53.703z"/>
				<path style="fill:#615E5C;" d="M21.202-53.572c-0.006-0.007-0.025-0.021-0.047-0.028c-0.018-0.015-0.056-0.032-0.117-0.052
					c-0.06-0.026-0.113-0.033-0.166-0.048c-0.045-0.006-0.108,0-0.166,0.018c-0.06,0.02-0.111,0.049-0.148,0.103
					c-0.034,0.061-0.039,0.117-0.02,0.168c0.033,0.049,0.072,0.078,0.133,0.099c0.058,0.021,0.121,0.044,0.201,0.07
					c0.07,0.029,0.143,0.05,0.215,0.08c0.057,0.025,0.115,0.063,0.155,0.117c0.041,0.056,0.055,0.113,0.052,0.193
					c-0.011,0.098-0.043,0.181-0.11,0.235c-0.059,0.053-0.125,0.087-0.21,0.1c-0.084,0.009-0.169,0-0.254-0.01
					c-0.084-0.016-0.159-0.037-0.226-0.063c-0.065-0.027-0.113-0.059-0.137-0.088l0.061-0.104c0.011,0.01,0.038,0.025,0.065,0.041
					c0.032,0.02,0.081,0.041,0.162,0.07c0.083,0.034,0.146,0.049,0.214,0.049c0.111,0,0.184-0.026,0.24-0.071
					c0.044-0.048,0.071-0.114,0.071-0.191c0-0.048-0.027-0.087-0.067-0.126c-0.041-0.031-0.096-0.057-0.152-0.077
					c-0.057-0.023-0.124-0.042-0.219-0.063c-0.118-0.027-0.209-0.077-0.269-0.153c-0.06-0.077-0.078-0.16-0.046-0.253
					c0.025-0.092,0.087-0.159,0.184-0.209c0.085-0.044,0.184-0.063,0.283-0.044c0.058,0.007,0.119,0.022,0.182,0.044
					c0.058,0.026,0.11,0.05,0.146,0.067l0.052,0.029L21.202-53.572z"/>
				<path style="fill:#615E5C;" d="M22.403-53.564c0.015-0.024,0.032-0.051,0.063-0.076c0.014-0.021,0.047-0.051,0.083-0.079
					c0.036-0.031,0.086-0.052,0.138-0.072c0.05-0.017,0.12-0.027,0.18-0.027c0.083,0,0.159,0.018,0.229,0.049
					c0.063,0.039,0.118,0.079,0.15,0.135c0.04,0.051,0.065,0.11,0.086,0.17c0.018,0.061,0.022,0.123,0.022,0.191v0.739h-0.121
					v-0.715c0-0.009,0-0.019,0-0.031c0-0.006-0.002-0.031-0.002-0.062c-0.012-0.034-0.012-0.063-0.018-0.092
					c-0.009-0.027-0.021-0.058-0.038-0.1c-0.021-0.03-0.045-0.059-0.071-0.081c-0.025-0.028-0.065-0.047-0.113-0.063
					c-0.047-0.021-0.097-0.027-0.156-0.027c-0.191,0-0.329,0.1-0.432,0.301v0.87h-0.122v-1.796h0.122V-53.564z"/>
				<path style="fill:#615E5C;" d="M23.836-53.111c0.005,0.053,0.019,0.108,0.037,0.161c0.028,0.066,0.063,0.122,0.109,0.172
					c0.046,0.054,0.099,0.09,0.159,0.116c0.067,0.026,0.133,0.046,0.21,0.046c0.07,0,0.139-0.02,0.199-0.046
					c0.044-0.015,0.079-0.041,0.118-0.067v0.137c-0.021,0.016-0.049,0.023-0.066,0.029c-0.086,0.037-0.168,0.059-0.262,0.059
					c-0.093,0-0.174-0.022-0.255-0.056c-0.075-0.033-0.142-0.082-0.207-0.14c-0.06-0.062-0.103-0.129-0.128-0.207
					c-0.031-0.08-0.05-0.16-0.05-0.254v-0.002c0-0.088,0.018-0.171,0.05-0.249c0.025-0.075,0.068-0.146,0.128-0.209
					c0.065-0.059,0.132-0.107,0.212-0.146c0.076-0.036,0.162-0.054,0.26-0.054c0.035,0,0.079,0.011,0.12,0.021
					c0.044,0.013,0.083,0.038,0.133,0.071c0.056,0.036,0.104,0.079,0.138,0.127c0.036,0.049,0.068,0.117,0.099,0.203
					c0.024,0.084,0.033,0.181,0.033,0.286H23.836z M24.342-53.703c-0.072,0-0.137,0.018-0.205,0.043
					c-0.06,0.027-0.11,0.067-0.161,0.112c-0.046,0.054-0.081,0.107-0.102,0.171c-0.018,0.054-0.032,0.102-0.037,0.16h0.912
					c-0.003-0.033-0.014-0.09-0.035-0.168c-0.014-0.051-0.04-0.1-0.063-0.139c-0.029-0.041-0.053-0.069-0.074-0.092
					c-0.025-0.018-0.055-0.037-0.085-0.047c-0.027-0.017-0.055-0.023-0.068-0.029c-0.02,0-0.038-0.009-0.059-0.011
					C24.352-53.702,24.347-53.703,24.342-53.703z"/>
				<path style="fill:#615E5C;" d="M25.866-53.673c-0.022,0-0.055,0-0.081,0.005c-0.03,0.001-0.072,0.012-0.112,0.036
					c-0.052,0.018-0.096,0.048-0.137,0.08c-0.038,0.035-0.073,0.087-0.119,0.155c-0.034,0.074-0.063,0.155-0.083,0.253v0.609h-0.117
					v-1.251h0.117v0.233v0.109c0.075-0.142,0.164-0.238,0.256-0.284c0.086-0.052,0.182-0.074,0.276-0.076V-53.673z"/>
				<path style="fill:#615E5C;" d="M25.9-53.111c0.003,0.053,0.018,0.108,0.041,0.161c0.021,0.066,0.055,0.122,0.104,0.172
					c0.05,0.054,0.1,0.09,0.164,0.116c0.062,0.026,0.128,0.046,0.2,0.046c0.077,0,0.146-0.02,0.213-0.046
					c0.035-0.015,0.074-0.041,0.107-0.067v0.137c-0.024,0.016-0.047,0.023-0.065,0.029c-0.08,0.037-0.164,0.059-0.259,0.059
					c-0.092,0-0.178-0.022-0.258-0.056c-0.073-0.033-0.146-0.082-0.203-0.14c-0.06-0.062-0.097-0.129-0.133-0.207
					c-0.028-0.08-0.046-0.16-0.046-0.254v-0.002c0-0.088,0.018-0.171,0.046-0.249c0.036-0.075,0.073-0.146,0.135-0.209
					c0.059-0.059,0.134-0.107,0.208-0.146c0.078-0.036,0.164-0.054,0.255-0.054c0.042,0,0.081,0.011,0.132,0.021
					c0.03,0.013,0.081,0.038,0.136,0.071c0.046,0.036,0.085,0.079,0.133,0.127c0.033,0.049,0.066,0.117,0.088,0.203
					c0.026,0.084,0.037,0.181,0.037,0.286H25.9z M26.405-53.703c-0.076,0-0.138,0.018-0.205,0.043
					c-0.063,0.027-0.115,0.067-0.162,0.112c-0.042,0.054-0.076,0.107-0.097,0.171c-0.023,0.054-0.038,0.102-0.041,0.16h0.91
					c-0.001-0.033-0.014-0.09-0.036-0.168c-0.019-0.051-0.039-0.1-0.068-0.139c-0.023-0.041-0.044-0.069-0.066-0.092
					c-0.027-0.018-0.055-0.037-0.085-0.047c-0.031-0.017-0.057-0.023-0.072-0.029c-0.016,0-0.039-0.009-0.055-0.011
					C26.419-53.702,26.409-53.703,26.405-53.703z"/>
			</g>
		</g>
		<polygon style="fill:#615E5C;" points="4.494,-52.914 -5.442,-52.885 -5.442,-53.016 4.494,-53.041 		"/>
	</g>
	<g>
		
			<linearGradient id="SVGID_00000033357767051030568010000017980587942071176127_" gradientUnits="userSpaceOnUse" x1="-6.9602" y1="-57.8098" x2="24.993" y2="-54.7504">
			<stop  offset="0" style="stop-color:#FFA261"/>
			<stop  offset="1" style="stop-color:#F17B00"/>
		</linearGradient>
		<path style="fill:url(#SVGID_00000033357767051030568010000017980587942071176127_);" d="M-0.448-54.779h-1.339l-0.784-3.634
			l-0.784,3.634h-1.338l-1.396-5.088h1.3l0.803,3.519l0.727-3.519h1.357l0.689,3.519l0.707-3.059c0.077-0.307,0.28-0.46,0.612-0.46
			h0.841L-0.448-54.779z"/>
		
			<linearGradient id="SVGID_00000065757774697605508580000016224055663746293179_" gradientUnits="userSpaceOnUse" x1="-6.9106" y1="-58.3279" x2="25.0454" y2="-55.2683">
			<stop  offset="0" style="stop-color:#FFA261"/>
			<stop  offset="1" style="stop-color:#F17B00"/>
		</linearGradient>
		<path style="fill:url(#SVGID_00000065757774697605508580000016224055663746293179_);" d="M4.829-56.348h0.956
			c-0.14,0.535-0.408,0.944-0.803,1.224c-0.395,0.293-0.892,0.44-1.491,0.44c-0.727,0-1.294-0.236-1.702-0.708
			c-0.408-0.459-0.612-1.116-0.612-1.97c0-0.816,0.197-1.454,0.593-1.913c0.408-0.471,0.976-0.708,1.702-0.708
			c0.765,0,1.358,0.229,1.778,0.688c0.409,0.472,0.612,1.128,0.612,1.97c0,0.051,0,0.096,0,0.134c0,0.038,0,0.063,0,0.076
			c0,0.064-0.006,0.108-0.019,0.134H2.534c0.013,0.395,0.109,0.688,0.287,0.879c0.166,0.204,0.414,0.306,0.746,0.306
			c0.217,0,0.402-0.045,0.555-0.134c0.039-0.013,0.074-0.035,0.105-0.067c0.032-0.032,0.067-0.067,0.105-0.105
			c0.013-0.038,0.061-0.089,0.144-0.153C4.559-56.316,4.676-56.348,4.829-56.348z M2.534-57.839h1.951
			c-0.025-0.344-0.115-0.599-0.268-0.764c-0.166-0.179-0.401-0.268-0.707-0.268c-0.28,0-0.51,0.089-0.689,0.268
			C2.643-58.425,2.547-58.17,2.534-57.839z"/>
		
			<linearGradient id="SVGID_00000176035642762771272610000000520817621139996078_" gradientUnits="userSpaceOnUse" x1="-6.8145" y1="-59.3421" x2="25.1424" y2="-56.2824">
			<stop  offset="0" style="stop-color:#FFA261"/>
			<stop  offset="1" style="stop-color:#F17B00"/>
		</linearGradient>
		<path style="fill:url(#SVGID_00000176035642762771272610000000520817621139996078_);" d="M6.129-61.357h0.688
			c0.178,0,0.331,0.061,0.459,0.181c0.127,0.122,0.191,0.271,0.191,0.45v5.948H6.129V-61.357z"/>
		
			<linearGradient id="SVGID_00000046334118501892187230000006082386731509119393_" gradientUnits="userSpaceOnUse" x1="-6.7955" y1="-59.4959" x2="25.1533" y2="-56.437">
			<stop  offset="0" style="stop-color:#FFA261"/>
			<stop  offset="1" style="stop-color:#F17B00"/>
		</linearGradient>
		<path style="fill:url(#SVGID_00000046334118501892187230000006082386731509119393_);" d="M7.755-61.357h0.688
			c0.179,0,0.332,0.061,0.459,0.181c0.128,0.122,0.191,0.271,0.191,0.45v5.948H7.755V-61.357z"/>
		
			<linearGradient id="SVGID_00000103981105143417719420000006206910607436400774_" gradientUnits="userSpaceOnUse" x1="-6.8417" y1="-59.039" x2="25.1118" y2="-55.9797">
			<stop  offset="0" style="stop-color:#FFA261"/>
			<stop  offset="1" style="stop-color:#F17B00"/>
		</linearGradient>
		<path style="fill:url(#SVGID_00000103981105143417719420000006206910607436400774_);" d="M13.759-54.779h-0.669
			c-0.191,0-0.347-0.061-0.468-0.184c-0.121-0.12-0.182-0.276-0.182-0.468v-2.6c0-0.306-0.092-0.529-0.277-0.669
			c-0.185-0.14-0.392-0.211-0.622-0.211c-0.23,0-0.434,0.07-0.612,0.211c-0.178,0.141-0.267,0.363-0.267,0.669v3.251H9.323v-2.984
			c0-0.867,0.226-1.446,0.679-1.74c0.453-0.293,0.953-0.452,1.501-0.478c0.561,0,1.077,0.146,1.549,0.44
			c0.471,0.293,0.707,0.887,0.707,1.778V-54.779z"/>
		
			<linearGradient id="SVGID_00000127724402763113684590000008359116919646142888_" gradientUnits="userSpaceOnUse" x1="-6.7997" y1="-59.5311" x2="25.1616" y2="-56.471">
			<stop  offset="0" style="stop-color:#FFA261"/>
			<stop  offset="1" style="stop-color:#F17B00"/>
		</linearGradient>
		<path style="fill:url(#SVGID_00000127724402763113684590000008359116919646142888_);" d="M17.507-56.348h0.956
			c-0.14,0.535-0.408,0.944-0.803,1.224c-0.396,0.293-0.893,0.44-1.492,0.44c-0.726,0-1.293-0.236-1.701-0.708
			c-0.408-0.459-0.612-1.116-0.612-1.97c0-0.816,0.197-1.454,0.593-1.913c0.407-0.471,0.975-0.708,1.701-0.708
			c0.765,0,1.358,0.229,1.779,0.688c0.408,0.472,0.612,1.128,0.612,1.97c0,0.051,0,0.096,0,0.134c0,0.038,0,0.063,0,0.076
			c0,0.064-0.006,0.108-0.019,0.134h-3.308c0.013,0.395,0.108,0.688,0.287,0.879c0.166,0.204,0.415,0.306,0.746,0.306
			c0.216,0,0.402-0.045,0.554-0.134c0.038-0.013,0.074-0.035,0.105-0.067c0.031-0.032,0.066-0.067,0.105-0.105
			c0.012-0.038,0.06-0.089,0.143-0.153C17.236-56.316,17.354-56.348,17.507-56.348z M15.212-57.839h1.95
			c-0.025-0.344-0.115-0.599-0.267-0.764c-0.165-0.179-0.401-0.268-0.708-0.268c-0.28,0-0.51,0.089-0.688,0.268
			C15.321-58.425,15.225-58.17,15.212-57.839z"/>
		
			<linearGradient id="SVGID_00000072281459551198176760000009006594593578187445_" gradientUnits="userSpaceOnUse" x1="-6.7606" y1="-59.9698" x2="25.2025" y2="-56.9095">
			<stop  offset="0" style="stop-color:#FFA261"/>
			<stop  offset="1" style="stop-color:#F17B00"/>
		</linearGradient>
		<path style="fill:url(#SVGID_00000072281459551198176760000009006594593578187445_);" d="M18.635-56.462h1.3
			c0.013,0.256,0.108,0.447,0.287,0.573c0.192,0.128,0.446,0.191,0.765,0.191c0.229,0,0.428-0.044,0.594-0.134
			c0.152-0.089,0.23-0.21,0.23-0.363c0-0.229-0.269-0.402-0.804-0.517c-0.229-0.038-0.401-0.077-0.517-0.115
			c-0.675-0.165-1.128-0.363-1.357-0.593c-0.255-0.23-0.383-0.535-0.383-0.918c0-0.484,0.185-0.886,0.556-1.204
			c0.381-0.293,0.878-0.44,1.491-0.44c0.662,0,1.191,0.146,1.586,0.44c0.37,0.319,0.567,0.733,0.594,1.243h-0.822
			c-0.242,0-0.428-0.107-0.555-0.325c-0.052-0.05-0.102-0.102-0.153-0.153c-0.152-0.115-0.363-0.172-0.631-0.172
			c-0.255,0-0.445,0.038-0.573,0.115c-0.115,0.077-0.172,0.191-0.172,0.344c0,0.204,0.331,0.376,0.993,0.517
			c0.078,0.025,0.145,0.044,0.202,0.057c0.056,0.013,0.11,0.02,0.162,0.02c0.649,0.166,1.103,0.357,1.357,0.574
			c0.242,0.229,0.363,0.535,0.363,0.917c0,0.562-0.204,0.995-0.611,1.301c-0.383,0.279-0.956,0.421-1.722,0.421
			c-0.728,0-1.268-0.147-1.625-0.44c-0.37-0.293-0.555-0.72-0.555-1.282V-56.462z"/>
		
			<linearGradient id="SVGID_00000106830568485743279430000017025977415490139820_" gradientUnits="userSpaceOnUse" x1="-6.72" y1="-60.4071" x2="25.243" y2="-57.3469">
			<stop  offset="0" style="stop-color:#FFA261"/>
			<stop  offset="1" style="stop-color:#F17B00"/>
		</linearGradient>
		<path style="fill:url(#SVGID_00000106830568485743279430000017025977415490139820_);" d="M23.245-56.462h1.299
			c0.013,0.256,0.108,0.447,0.287,0.573c0.191,0.128,0.446,0.191,0.765,0.191c0.23,0,0.427-0.044,0.593-0.134
			c0.153-0.089,0.23-0.21,0.23-0.363c0-0.229-0.268-0.402-0.803-0.517c-0.229-0.038-0.402-0.077-0.517-0.115
			c-0.675-0.165-1.127-0.363-1.357-0.593c-0.255-0.23-0.383-0.535-0.383-0.918c0-0.484,0.186-0.886,0.555-1.204
			c0.383-0.293,0.88-0.44,1.492-0.44c0.663,0,1.191,0.146,1.587,0.44c0.37,0.319,0.566,0.733,0.593,1.243h-0.822
			c-0.242,0-0.428-0.107-0.554-0.325c-0.052-0.05-0.103-0.102-0.154-0.153c-0.152-0.115-0.363-0.172-0.631-0.172
			c-0.255,0-0.446,0.038-0.573,0.115c-0.114,0.077-0.173,0.191-0.173,0.344c0,0.204,0.332,0.376,0.995,0.517
			c0.076,0.025,0.143,0.044,0.201,0.057c0.057,0.013,0.11,0.02,0.162,0.02c0.649,0.166,1.102,0.357,1.357,0.574
			c0.243,0.229,0.363,0.535,0.363,0.917c0,0.562-0.204,0.995-0.612,1.301c-0.382,0.279-0.956,0.421-1.721,0.421
			c-0.727,0-1.269-0.147-1.625-0.44c-0.37-0.293-0.554-0.72-0.554-1.282V-56.462z"/>
	</g>
</g>
</svg>
